<?xml version="1.0" encoding="UTF-8"?>
<svg width="270px" height="161px" viewBox="0 0 270 161" version="1.1" xmlns="http://www.w3.org/2000/svg" xmlns:xlink="http://www.w3.org/1999/xlink">
    <!-- Generator: Sketch Beta 45 (43276) - http://www.bohemiancoding.com/sketch -->
    <title>Group</title>
    <desc>Created with Sketch Beta.</desc>
    <defs>
        <linearGradient x1="50%" y1="0%" x2="50%" y2="100%" id="linearGradient-1">
            <stop stop-color="#957FF8" stop-opacity="0.65" offset="0%"></stop>
            <stop stop-color="#3927CA" stop-opacity="0.6" offset="100%"></stop>
        </linearGradient>
    </defs>
    <g id="凤蝶标志" stroke="none" stroke-width="1" fill="none" fill-rule="evenodd">
        <g id="basic-logo" transform="translate(-582.000000, -274.000000)">
            <g id="Group-2" transform="translate(582.000000, 154.000000)">
                <g id="Group" transform="translate(0.000000, 120.000000)">
                    <g id="Page-1">
                        <g id="Group-13" transform="translate(129.248120, 20.150135)"></g>
                        <path d="M143.862226,70.7931266 C127.756962,98.7969367 125.325609,130.287042 134.848015,155.136747 C161.046812,150.990827 186.996586,133.132055 203.10185,105.128245 C219.207113,77.1244346 221.638466,45.6343291 212.11606,20.7846245 C185.917263,24.9305443 159.967489,42.7893165 143.862226,70.7931266" id="Fill-4" fill="url(#linearGradient-1)"></path>
                        <path d="M100.83309,77.5685093 C100.83309,109.905054 114.411586,138.39594 135.03512,155.137222 C155.658654,138.39594 169.23715,109.905054 169.23715,77.5685093 C169.23715,45.231965 155.658654,16.7410789 135.03512,-0.000203797468 C114.411586,16.7410789 100.83309,45.231965 100.83309,77.5685093" id="Fill-1" fill="url(#linearGradient-1)"></path>
                        <path d="M135.607805,155.163716 C160.361188,164.723176 191.729233,162.282362 219.624496,146.114429 C247.519759,129.946497 265.309308,103.895746 269.439158,77.595003 C244.685774,68.035543 213.317729,70.4763574 185.422466,86.6442899 C157.527203,102.812222 139.737654,128.862973 135.607805,155.163716 Z" id="Fill-6" fill="url(#linearGradient-1)"></path>
                        <path d="M67.2071278,105.128313 C83.312391,133.132123 109.262165,150.990895 135.460962,155.136815 C144.983368,130.28711 142.552015,98.7970046 126.446752,70.7931945 C110.341489,42.7893844 84.3917143,24.9306122 58.1929173,20.7846924 C48.6705113,45.634397 51.1018647,77.1245025 67.2071278,105.128313" id="Fill-9" fill="url(#linearGradient-1)"></path>
                        <path d="M49.814797,146.114429 C77.7100602,162.282362 109.078105,164.723176 133.831489,155.163716 C129.701639,128.862973 111.91209,102.812222 84.0168271,86.6442899 C56.1215639,70.4763574 24.7535188,68.035543 0.000135338345,77.595003 C4.12998496,103.895746 21.9195338,129.946497 49.814797,146.114429" id="Fill-11" fill="url(#linearGradient-1)"></path>
                        <g id="Group-19" transform="translate(114.360902, 67.023553)" fill="#FEFEFE">
                            <path d="M40.7015188,92.9281131 C30.7412932,74.6624253 24.9501654,53.7867713 24.5624211,31.5877924 L24.5624211,21.4223747 L16.8244511,21.4223747 L16.8244511,32.2188852 C16.3372331,54.2392017 10.5325714,74.9409485 0.619714286,93.0673747 L40.7285865,93.0673747 L40.7015188,92.9281131 Z" id="Fill-15"></path>
                            <polygon id="Fill-17" points="7.97433835 4.89582658 13.7607293 0.488366667 16.7855414 10.5763414"></polygon>
                            <polygon id="Fill-14" points="16.9089023 26.394965 16.7627368 10.3907498 38.4189023 18.265484"></polygon>
                        </g>
                    </g>
                </g>
            </g>
        </g>
    </g>
</svg>